<svg width="536" height="536" viewBox="0 0 536 536" fill="none" xmlns="http://www.w3.org/2000/svg">
<g filter="url(#filter0_d_715_21)">
<rect x="12" y="2" width="512" height="512" rx="256" fill="#fff"/>
<path fill-rule="evenodd" clip-rule="evenodd" d="M360.17 315.819C352.074 314.159 346.365 313.224 346.365 313.224L360.17 319.141L379.372 327.237L383.005 327.859C377.088 328.275 370.342 329.52 362.765 332.115C361.934 332.392 361.069 332.703 360.17 333.049C359.201 333.464 358.198 333.88 357.16 334.295C353.112 336.059 348.545 338.343 343.77 341.041C331.419 347.788 317.302 356.818 304.536 365.433C291.665 374.152 280.248 382.352 273.709 387.022L272.463 369.377L269.972 334.295L269.661 330.558C270.595 330.247 271.944 329.832 273.605 329.313C276.823 328.275 281.286 326.925 286.476 325.472C291.977 323.811 298.204 322.047 304.536 320.386C319.378 316.442 335.051 313.017 343.77 313.121C344.739 313.121 345.604 313.155 346.365 313.224C346.365 313.224 345.535 312.809 343.77 312.29C339.826 311.045 331.211 309.488 315.746 311.875C312.009 312.498 308.272 313.224 304.536 314.055C298.204 315.612 291.977 317.48 286.476 319.348C278.38 322.047 271.944 324.642 269.349 325.784V325.68H268H266.755V325.784C263.848 324.538 256.479 321.528 247.345 318.622C241.74 316.753 235.616 314.989 229.285 313.536C226.275 312.913 223.265 312.29 220.358 311.875C200.533 308.865 191.919 312.186 190.05 313.017C189.843 313.155 189.739 313.224 189.739 313.224C189.877 313.224 189.981 313.224 190.05 313.224C190.95 313.155 191.918 313.121 192.956 313.121C201.364 313.224 215.48 316.234 229.285 319.763C235.616 321.424 241.844 323.189 247.345 324.746C256.167 327.34 263.329 329.624 266.339 330.558L266.132 334.295L263.641 369.377L262.291 386.919C255.441 381.833 243.089 372.699 229.285 363.15C216.414 354.327 202.298 345.089 190.05 338.55C187.213 336.959 184.48 335.54 181.85 334.295C179.429 333.118 177.111 332.15 174.896 331.388C174.343 331.112 173.824 330.904 173.339 330.766C167.527 328.69 162.129 327.548 157.251 327.029L174.896 319.556L189.739 313.224C189.739 313.224 183.511 314.262 174.896 315.923C157.251 319.452 129.642 325.887 126.217 332.426L190.05 362.838L227.935 380.795L268 399.893L308.169 380.795L343.77 363.876L409.887 332.426C406.358 325.784 377.815 319.244 360.17 315.819Z" fill="#D3B358"/>
<path d="M267.585 168.327C267.585 168.327 354.565 180.367 373.974 203.721C373.974 203.721 377.503 165.732 337.023 142.275C287.721 113.627 267.585 91 267.585 91C267.585 91 247.449 113.627 198.146 142.275C157.666 165.732 161.195 203.721 161.195 203.721C179.878 181.198 267.585 168.327 267.585 168.327Z" fill="#090C0B"/>
<path d="M351.139 298.797C353.008 299.108 356.225 299.627 360.17 300.354V216.592C360.17 198.116 267.585 183.273 267.585 183.273C267.585 183.273 174.896 198.116 174.896 216.592V300.561C179.359 299.731 182.888 299.108 184.964 298.797C186.314 298.174 188.078 297.655 190.05 297.24V237.558C190.119 237.558 190.154 237.558 190.154 237.558C190.085 237.558 190.05 237.558 190.05 237.558C190.05 237.558 189.427 229.462 196.901 224.376C205.931 218.252 209.667 213.374 209.667 213.374C209.667 213.374 213.404 218.252 222.538 224.376C230.011 229.462 229.388 237.558 229.388 237.558C229.319 237.558 229.285 237.558 229.285 237.558V298.174C235.512 299.42 241.636 300.977 247.345 302.741V226.141C247.345 226.141 247.31 226.141 247.241 226.141C247.241 226.141 246.618 218.045 254.091 212.959C263.225 206.731 266.962 201.956 266.962 201.956C266.962 201.956 270.699 206.731 279.729 212.959C287.202 218.045 286.579 226.141 286.579 226.141C286.579 226.141 286.545 226.106 286.475 226.037C286.475 226.106 286.475 226.141 286.475 226.141V303.468C292.184 301.703 298.308 299.939 304.536 298.589V237.558C304.536 237.558 303.913 229.462 311.386 224.376C320.416 218.252 324.153 213.374 324.153 213.374C324.153 213.374 327.889 218.252 337.023 224.376C344.497 229.462 343.874 237.558 343.874 237.558C343.805 237.558 343.77 237.558 343.77 237.558V296.721C346.78 297.344 349.271 298.07 351.139 298.797Z" fill="#090C0B"/>
<path d="M403.971 227.386C403.971 227.386 422.446 229.981 426.494 234.859C426.494 234.859 427.221 223.649 418.71 218.667C408.226 212.647 403.971 207.873 403.971 207.873C403.971 207.873 399.715 212.647 389.336 218.667C380.825 223.649 381.551 234.859 381.551 234.859C385.496 230.085 403.971 227.386 403.971 227.386Z" fill="#090C0B"/>
<path d="M384.458 246.692V305.647C401.168 309.695 413.001 313.847 419.852 320.179H423.588V246.692C423.588 242.852 403.971 239.738 403.971 239.738C403.971 239.738 384.458 242.852 384.458 246.692Z" fill="#090C0B"/>
<path d="M132.029 227.386C132.029 227.386 150.608 230.085 154.553 234.859C154.553 234.859 155.279 223.649 146.768 218.667C136.285 212.647 132.029 207.873 132.029 207.873C132.029 207.873 127.774 212.647 117.394 218.667C108.779 223.649 109.609 234.859 109.609 234.859C113.657 229.981 132.029 227.386 132.029 227.386Z" fill="#090C0B"/>
<path d="M112.516 246.692V320.179H116.148C123.103 313.847 134.935 309.695 151.646 305.647V246.692C151.646 242.852 132.029 239.738 132.029 239.738C132.029 239.738 112.516 242.852 112.516 246.692Z" fill="#090C0B"/>
<path d="M345.535 382.974L268 415.462L190.569 382.974L82 337.408C84.4911 354.223 96.2199 368.132 112.308 373.425L268 424.388L423.796 373.425C439.884 368.132 451.613 354.223 454 337.408L345.535 382.974Z" fill="#090C0B"/>
</g>
<defs>
<filter id="filter0_d_715_21" x="0" y="0" width="536" height="536" filterUnits="userSpaceOnUse" color-interpolation-filters="sRGB">
<feFlood flood-opacity="0" result="BackgroundImageFix"/>
<feColorMatrix in="SourceAlpha" type="matrix" values="0 0 0 0 0 0 0 0 0 0 0 0 0 0 0 0 0 0 127 0" result="hardAlpha"/>
<feOffset dy="10"/>
<feGaussianBlur stdDeviation="6"/>
<feComposite in2="hardAlpha" operator="out"/>
<feColorMatrix type="matrix" values="0 0 0 0 0 0 0 0 0 0 0 0 0 0 0 0 0 0 0.1 0"/>
<feBlend mode="normal" in2="BackgroundImageFix" result="effect1_dropShadow_715_21"/>
<feBlend mode="normal" in="SourceGraphic" in2="effect1_dropShadow_715_21" result="shape"/>
</filter>
</defs>
</svg>
